<svg xmlns="http://www.w3.org/2000/svg" viewBox="0 0 256 256">
  <defs>
    <linearGradient id="bg" x1="32" y1="28" x2="226" y2="236" gradientUnits="userSpaceOnUse">
      <stop offset="0" stop-color="#101827"/>
      <stop offset="0.54" stop-color="#0b1220"/>
      <stop offset="1" stop-color="#05070d"/>
    </linearGradient>
    <linearGradient id="shield" x1="72" y1="50" x2="186" y2="210" gradientUnits="userSpaceOnUse">
      <stop offset="0" stop-color="#7dd3fc"/>
      <stop offset="0.52" stop-color="#38bdf8"/>
      <stop offset="1" stop-color="#22c55e"/>
    </linearGradient>
    <linearGradient id="accent" x1="84" y1="74" x2="172" y2="176" gradientUnits="userSpaceOnUse">
      <stop offset="0" stop-color="#f8fafc"/>
      <stop offset="1" stop-color="#bae6fd"/>
    </linearGradient>
  </defs>
  <rect width="256" height="256" rx="56" fill="url(#bg)"/>
  <path d="M128 34 197 61v57c0 46-26 84-69 105-43-21-69-59-69-105V61l69-27Z" fill="url(#shield)"/>
  <path d="M128 52 179 72v45c0 33-18 61-51 79-33-18-51-46-51-79V72l51-20Z" fill="#08111f" opacity=".82"/>
  <path d="M130 80c-26 0-47 21-47 47s21 47 47 47c17 0 32-9 40-22l-28-16c-3 4-7 7-13 7-9 0-16-7-16-16s7-16 16-16c6 0 11 3 14 8l29-15c-8-15-23-24-42-24Z" fill="url(#accent)"/>
  <circle cx="185" cy="68" r="20" fill="#fb7185"/>
  <circle cx="185" cy="68" r="9" fill="#fff1f2"/>
</svg>
